# xmcd
#
# Track frame offsets:
#  150
#  16633
#  27875
#  47442
#  64222
#  85298
#  97119
#  109627
#  117048
#  128860
#  140541
#  151331
#  166008
#  177676
#  193273
#  204082
#
# Disc length: 3062 seconds
#
# Revision: 0
# Processed by: cddbd v1.5.1PL2 Copyright (c) Steve Scherf et al.
# Submitted via: Collectorz.com_Music_Collector 6.9
#
DISCID=ce0bf410
DTITLE=Various Artist - Soul Train [CD2]
DYEAR=1900
DGENRE=Soul
TTITLE0=Ike Turner - Tina Turner - I Can't Stop Loving You
TTITLE1=Mary Wells - The One Who Really Loves You
TTITLE2=Al Jarreau - Lean On Me
TTITLE3=Solomon Burke - Hold On I'm Coming
TTITLE4=Rufus Thomas - Funky Chicken
TTITLE5=Jerry Butler - Make It Easy On Yourself
TTITLE6=Dee Clark - Raindrops
TTITLE7=Maurice Williams - The Zodiacs - Stay
TTITLE8=The Tams - What Kind Of Fool
TTITLE9=Brook Benton - Hotel Happiness
TTITLE10=The Tymes - Lovers Plea
TTITLE11=The Platters - The Great Pretender
TTITLE12=The Drifters - Under The Boardwalk
TTITLE13=Clarence Carter - Driftaway
TTITLE14=Lee Dorsey - Ya-Ya
TTITLE15=George Williams - Let's Make This Love Last Forever
EXTD=
EXTT0=
EXTT1=
EXTT2=
EXTT3=
EXTT4=
EXTT5=
EXTT6=
EXTT7=
EXTT8=
EXTT9=
EXTT10=
EXTT11=
EXTT12=
EXTT13=
EXTT14=
EXTT15=
PLAYORDER=
